<svg xmlns="http://www.w3.org/2000/svg" width="25" height="24" viewBox="0 0 25 24" fill="none">
    <path d="M12.501 1.59404C3.23101 1.59104 -1.41199 12.797 5.14101 19.352C6.59578 20.8072 8.44941 21.7983 10.4675 22.1999C12.4855 22.6015 14.5773 22.3957 16.4784 21.6084C18.3795 20.8211 20.0044 19.4877 21.1476 17.7769C22.2908 16.0661 22.901 14.0547 22.901 11.997C22.901 6.25304 18.246 1.59604 12.501 1.59404ZM6.61001 6.78304C7.11101 4.18504 10.503 3.48904 11.986 5.68004C13.469 7.87104 11.564 10.762 8.96601 10.262C8.58282 10.1884 8.21788 10.04 7.89206 9.82532C7.56624 9.61062 7.28592 9.33381 7.06713 9.01072C6.84833 8.68764 6.69535 8.3246 6.61691 7.94237C6.53848 7.56013 6.53613 7.16618 6.61001 6.78304ZM10.932 15.771C10.428 18.368 7.03601 19.059 5.55501 16.867C4.07401 14.675 5.98201 11.787 8.58001 12.288C8.96325 12.3621 9.32814 12.5109 9.65381 12.7261C9.97948 12.9413 10.2595 13.2185 10.478 13.542C10.6964 13.8655 10.849 14.2289 10.9269 14.6113C11.0048 14.9938 11.0065 15.3879 10.932 15.771ZM12.192 13.366C11.04 13.143 10.73 11.639 11.701 10.979C12.671 10.319 13.957 11.159 13.741 12.313C13.709 12.4841 13.6435 12.6471 13.5482 12.7927C13.453 12.9383 13.3299 13.0636 13.186 13.1615C13.0421 13.2593 12.8803 13.3278 12.7099 13.3629C12.5395 13.398 12.3628 13.3991 12.192 13.366ZM18.391 17.204C17.89 19.802 14.498 20.497 13.015 18.307C11.532 16.117 13.436 13.225 16.035 13.724C16.4183 13.7976 16.7833 13.9461 17.1092 14.1608C17.4351 14.3756 17.7155 14.6525 17.9343 14.9757C18.1531 15.2989 18.3061 15.6621 18.3844 16.0444C18.4628 16.4268 18.465 16.8208 18.391 17.204ZM16.424 11.702C13.826 11.201 13.131 7.80604 15.322 6.32204C17.513 4.83804 20.403 6.74404 19.904 9.34204C19.8309 9.72569 19.6828 10.0912 19.4682 10.4175C19.2536 10.7438 18.9768 11.0247 18.6535 11.2439C18.3303 11.4631 17.967 11.6164 17.5844 11.695C17.2018 11.7736 16.8075 11.776 16.424 11.702ZM14.09 23.264L16.354 23.874C17.306 24.1266 18.3193 23.9909 19.1712 23.4966C20.0231 23.0023 20.6439 22.1899 20.897 21.238L21.537 18.836C19.7354 21.2364 17.0584 22.8279 14.089 23.264M21.732 3.59904L19.369 2.97004C20.563 3.88874 21.5627 5.03538 22.3101 6.34343C23.0575 7.65149 23.5378 9.09494 23.723 10.59L24.373 8.13104C24.6218 7.17991 24.4834 6.16895 23.9882 5.31966C23.493 4.47036 22.6813 3.852 21.731 3.60004M1.17201 13.809L0.631011 15.849C0.378408 16.801 0.514184 17.8144 1.00849 18.6663C1.50279 19.5182 2.31517 20.1389 3.26701 20.392L5.37401 20.954C3.12455 19.1855 1.6249 16.6344 1.17201 13.809ZM10.857 0.702039L8.65001 0.126039C8.1783 0.000382543 7.68645 -0.0310739 7.20257 0.0334676C6.7187 0.098009 6.25228 0.257283 5.83 0.502184C5.40771 0.747085 5.03784 1.07281 4.74151 1.46074C4.44518 1.84868 4.22821 2.29121 4.10301 2.76304L3.55201 4.84504C5.37 2.58299 7.9825 1.10096 10.857 0.702039Z" fill="#D6D7D9"/>
</svg>