<svg xmlns="http://www.w3.org/2000/svg" width="48" height="48" viewBox="0 0 48 48" fill="none">
    <path d="M24 8H10C8.4087 8 6.88258 8.63214 5.75736 9.75736C4.63214 10.8826 4 12.4087 4 14V30C4 31.5913 4.63214 33.1174 5.75736 34.2426C6.88258 35.3679 8.4087 36 10 36L8 38V40H10L14 35.94L18 36V26H8V12H26V16H30V14C30 12.4087 29.3679 10.8826 28.2426 9.75736C27.1174 8.63214 25.5913 8 24 8ZM10 28C10.5304 28 11.0391 28.2107 11.4142 28.5858C11.7893 28.9609 12 29.4696 12 30C12 30.5304 11.7893 31.0391 11.4142 31.4142C11.0391 31.7893 10.5304 32 10 32C9.46957 32 8.96086 31.7893 8.58579 31.4142C8.21071 31.0391 8 30.5304 8 30C8 29.4696 8.21071 28.9609 8.58579 28.5858C8.96086 28.2107 9.46957 28 10 28ZM41.14 19.32C40.86 18.52 40.1 18 39.2 18H24.82C23.9 18 23.16 18.52 22.86 19.32L20 27.54V38.56C20 39.32 20.64 40 21.4 40H22.64C23.4 40 24 39.24 24 38.48V36H40V38.48C40 39.24 40.62 40 41.38 40H42.6C43.36 40 44 39.32 44 38.56V27.54L41.14 19.32ZM24.82 20H39.2L41.26 26H22.76L24.82 20ZM24 32C23.4696 32 22.9609 31.7893 22.5858 31.4142C22.2107 31.0391 22 30.5304 22 30C22 29.4696 22.2107 28.9609 22.5858 28.5858C22.9609 28.2107 23.4696 28 24 28C24.5304 28 25.0391 28.2107 25.4142 28.5858C25.7893 28.9609 26 29.4696 26 30C26 30.5304 25.7893 31.0391 25.4142 31.4142C25.0391 31.7893 24.5304 32 24 32ZM40 32C39.4696 32 38.9609 31.7893 38.5858 31.4142C38.2107 31.0391 38 30.5304 38 30C38 29.4696 38.2107 28.9609 38.5858 28.5858C38.9609 28.2107 39.4696 28 40 28C40.5304 28 41.0391 28.2107 41.4142 28.5858C41.7893 28.9609 42 29.4696 42 30C42 30.5304 41.7893 31.0391 41.4142 31.4142C41.0391 31.7893 40.5304 32 40 32Z" fill="#8CAFBA"/>
</svg>