<svg xmlns="http://www.w3.org/2000/svg" width="48" height="48" viewBox="0 0 48 48" fill="none">
    <path fill-rule="evenodd" clip-rule="evenodd" d="M32.5251 6.608C32.6599 6.39153 32.8559 6.21988 33.0882 6.11474C33.3205 6.00959 33.5788 5.97568 33.8304 6.01728L40.4625 7.12392C40.7997 7.18017 41.1008 7.36799 41.2996 7.64612C41.4984 7.92425 41.5787 8.26992 41.5227 8.60719L40.4187 15.2419C40.3765 15.4934 40.2608 15.7268 40.0861 15.9125C39.9114 16.0983 39.6855 16.228 39.437 16.2855C39.1886 16.3429 38.9287 16.3254 38.6902 16.2351C38.4517 16.1449 38.2453 15.986 38.097 15.7785L36.3068 13.2762L27.0873 19.168C26.6942 19.4196 26.2233 19.5206 25.7616 19.4523C25.2999 19.3841 24.8784 19.1512 24.5748 18.7966L19.4337 12.7861L9.81956 17.726C9.36323 17.9607 8.83238 18.0045 8.34377 17.8477C7.85517 17.691 7.44884 17.3466 7.21417 16.8903C6.97951 16.4339 6.93573 15.9031 7.09247 15.4145C7.24921 14.9259 7.59363 14.5195 8.04996 14.2849L19.0261 8.6433C19.4136 8.44422 19.857 8.38176 20.2844 8.46603C20.7119 8.5503 21.0983 8.77637 21.3813 9.10763L26.4218 15.002L34.0574 10.1214L32.569 8.03968C32.421 7.83209 32.3379 7.5853 32.3301 7.33049C32.3222 7.07567 32.3901 6.82426 32.5251 6.608ZM15.6391 19.2738L8.15315 23.5559C7.85741 23.7248 7.61151 23.9688 7.4403 24.2633C7.26908 24.5577 7.17862 24.8921 7.17806 25.2327V40.0653C7.17806 41.1333 8.0448 42 9.11275 42H15.6391V19.2738ZM18.8636 42H28.3256V24.4278L24.0718 26.5534L19.8206 19.1139C19.6055 18.7359 19.2692 18.4415 18.8662 18.2781L18.8636 42ZM38.7781 42H31.55V22.8156L37.9139 19.6324C38.2089 19.4851 38.5366 19.4157 38.8659 19.4306C39.1952 19.4456 39.5153 19.5445 39.7957 19.7179C40.076 19.8913 40.3075 20.1335 40.468 20.4214C40.6285 20.7094 40.7127 21.0336 40.7128 21.3633V40.0653C40.7128 40.5784 40.5089 41.0705 40.1461 41.4333C39.7833 41.7962 39.2912 42 38.7781 42Z" fill="#8CAFBA"/>
</svg>