<svg xmlns="http://www.w3.org/2000/svg" width="12" height="13" viewBox="0 0 12 13" fill="none">
    <circle cx="6" cy="6.5" r="5.5" stroke="#ADAFB3"/>
    <path d="M6.11009 9.5C5.67584 9.5 5.26911 9.42275 4.88991 9.26824C4.51682 9.10801 4.18654 8.89056 3.89908 8.61588C3.61774 8.33548 3.39755 8.01502 3.23853 7.65451C3.07951 7.29399 3 6.91059 3 6.50429C3 6.10372 3.07645 5.72318 3.22936 5.36266C3.38226 5.00215 3.59939 4.68169 3.88073 4.40129C4.16208 4.12089 4.49235 3.90057 4.87156 3.74034C5.25076 3.58011 5.66361 3.5 6.11009 3.5C6.54434 3.5 6.95107 3.57725 7.33028 3.73176C7.70948 3.88627 8.04281 4.10372 8.33027 4.38412C8.61774 4.6588 8.83792 4.98212 8.99083 5.35408H8.2844C8.03975 4.93061 7.71865 4.61874 7.3211 4.41845C6.92355 4.21817 6.4893 4.11803 6.01835 4.11803C5.76147 4.11803 5.49541 4.17239 5.22018 4.28112C4.94495 4.38412 4.68502 4.53863 4.44037 4.74463C4.20183 4.95064 4.00917 5.20243 3.86239 5.5C3.7156 5.79185 3.6422 6.12661 3.6422 6.50429C3.6422 6.83047 3.70642 7.13949 3.83486 7.43133C3.9633 7.71745 4.14067 7.96924 4.36697 8.1867C4.59327 8.40415 4.85321 8.57582 5.14679 8.70172C5.44648 8.82189 5.76758 8.88197 6.11009 8.88197C6.58716 8.88197 7.01835 8.76466 7.40367 8.53004C7.78899 8.29542 8.08563 7.99499 8.29358 7.62876H9C8.84709 8.00072 8.62385 8.3269 8.33027 8.6073C8.04281 8.8877 7.70642 9.10801 7.3211 9.26824C6.9419 9.42275 6.53823 9.5 6.11009 9.5Z" fill="#ADAFB3"/>
</svg>