<svg xmlns="http://www.w3.org/2000/svg" width="48" height="48" viewBox="0 0 48 48" fill="none">
    <path d="M45.8 42.4L37.6 34.2C38.4 32.2 38 29.6 36.2 28C34.4 26.2 31.8 25.8 29.6 26.8L33.4 30.6L30.6 33.4L26.6 29.4C25.6 31.6 26 34.2 27.8 36.2C29.6 38 32 38.4 34 37.6L42.2 45.8C42.6 46.2 43.2 46.2 43.4 45.8L45.4 43.8C46 43.2 46 42.6 45.8 42.4ZM26 40H4V36C4 31.6 11.2 28 20 28C21 28 22 28 22.8 28.2C22.2 29.4 22 30.6 22 32C22 35.2 23.6 38.2 26 40ZM20 8C15.6 8 12 11.6 12 16C12 20.4 15.6 24 20 24C24.4 24 28 20.4 28 16C28 11.6 24.4 8 20 8Z" fill="#8CAFBA"/>
</svg>