<svg xmlns="http://www.w3.org/2000/svg" width="20" height="21" viewBox="0 0 20 21" fill="none">
    <path fill-rule="evenodd" clip-rule="evenodd" d="M7.16413 8.70026C7.26937 8.58243 7.41201 8.51625 7.56074 8.51625C7.70947 8.51625 7.85211 8.58243 7.95735 8.70026L9.99275 10.9821L12.0282 8.70026C12.0795 8.63844 12.1415 8.58886 12.2103 8.55447C12.2792 8.52008 12.3535 8.50159 12.4289 8.5001C12.5042 8.49861 12.5791 8.51415 12.649 8.54579C12.7188 8.57744 12.7823 8.62454 12.8356 8.68428C12.8889 8.74403 12.9309 8.8152 12.9592 8.89355C12.9874 8.97189 13.0012 9.05581 12.9999 9.14029C12.9986 9.22477 12.9821 9.30808 12.9514 9.38526C12.9207 9.46244 12.8765 9.53191 12.8214 9.58951L10.3894 12.316C10.2841 12.4338 10.1415 12.5 9.99275 12.5C9.84403 12.5 9.70138 12.4338 9.59615 12.316L7.16413 9.58951C7.05903 9.47154 7 9.31162 7 9.14488C7 8.97815 7.05903 8.81823 7.16413 8.70026Z" fill="#EBEBEB"/>
</svg>