<svg xmlns="http://www.w3.org/2000/svg" width="48" height="48" viewBox="0 0 48 48" fill="none">
    <path d="M27.5536 21.2583C27.2394 20.9444 26.8133 20.768 26.369 20.768C25.9248 20.768 25.4987 20.9444 25.1845 21.2583L24 22.4406C23.368 23.0507 22.5216 23.3883 21.643 23.3806C20.7644 23.373 19.924 23.0208 19.3027 22.3998C18.6815 21.7788 18.3291 20.9388 18.3214 20.0606C18.3138 19.1825 18.6515 18.3364 19.2619 17.7048L28.6945 8.27328C30.9277 7.76558 33.2642 7.97452 35.3718 8.87041C37.4793 9.76629 39.2507 11.3035 40.4339 13.2635C41.6172 15.2234 42.1521 17.5064 41.9627 19.7877C41.7732 22.069 40.869 24.2326 39.3786 25.9707L35.8469 29.546L27.5536 21.2583ZM9.19101 11.1905C10.9242 9.45707 13.1919 8.35898 15.6271 8.07391C18.0622 7.78884 20.5224 8.33348 22.6094 9.61968L16.8912 15.3368C15.6527 16.5723 14.9468 18.2428 14.9242 19.9916C14.9016 21.7403 15.5641 23.4285 16.7702 24.6955C17.9763 25.9625 19.6304 26.7078 21.3789 26.7721C23.1274 26.8364 24.8318 26.2146 26.1278 25.0396L26.369 24.8102L33.4778 31.914L26.369 39.0194C25.7407 39.6473 24.8885 40 24 40C23.1115 40 22.2593 39.6473 21.631 39.0194L9.18934 26.5836C7.14723 24.5423 6 21.7738 6 18.887C6 16.0003 7.14891 13.2318 9.19101 11.1905Z" fill="#8CAFBA"/>
</svg>