<svg xmlns="http://www.w3.org/2000/svg" width="25" height="24" viewBox="0 0 25 24" fill="none">
    <path d="M12.5 8.87579C10.7797 8.87579 9.37577 10.2797 9.37577 12C9.37577 13.7203 10.7797 15.1242 12.5 15.1242C14.2203 15.1242 15.6242 13.7203 15.6242 12C15.6242 10.2797 14.2203 8.87579 12.5 8.87579ZM21.8703 12C21.8703 10.7063 21.882 9.42423 21.8094 8.13283C21.7367 6.63283 21.3945 5.30158 20.2976 4.2047C19.1984 3.10548 17.8695 2.76564 16.3695 2.69298C15.0758 2.62033 13.7937 2.63204 12.5023 2.63204C11.2086 2.63204 9.92655 2.62033 8.63515 2.69298C7.13515 2.76564 5.8039 3.10783 4.70702 4.2047C3.6078 5.30392 3.26796 6.63283 3.1953 8.13283C3.12265 9.42658 3.13436 10.7086 3.13436 12C3.13436 13.2914 3.12265 14.5758 3.1953 15.8672C3.26796 17.3672 3.61015 18.6985 4.70702 19.7953C5.80624 20.8945 7.13515 21.2344 8.63515 21.307C9.9289 21.3797 11.2109 21.368 12.5023 21.368C13.7961 21.368 15.0781 21.3797 16.3695 21.307C17.8695 21.2344 19.2008 20.8922 20.2976 19.7953C21.3969 18.6961 21.7367 17.3672 21.8094 15.8672C21.8844 14.5758 21.8703 13.2938 21.8703 12ZM12.5 16.807C9.83983 16.807 7.69296 14.6602 7.69296 12C7.69296 9.33986 9.83983 7.19298 12.5 7.19298C15.1601 7.19298 17.307 9.33986 17.307 12C17.307 14.6602 15.1601 16.807 12.5 16.807ZM17.5039 8.11876C16.8828 8.11876 16.3812 7.6172 16.3812 6.99611C16.3812 6.37501 16.8828 5.87345 17.5039 5.87345C18.125 5.87345 18.6266 6.37501 18.6266 6.99611C18.6267 7.14359 18.5978 7.28966 18.5415 7.42595C18.4851 7.56224 18.4024 7.68607 18.2981 7.79036C18.1939 7.89464 18.07 7.97733 17.9337 8.03368C17.7974 8.09004 17.6514 8.11895 17.5039 8.11876Z" fill="#D6D7D9"/>
</svg>