<svg xmlns="http://www.w3.org/2000/svg" width="24" height="24" viewBox="0 0 24 24" fill="none">
    <path fill-rule="evenodd" clip-rule="evenodd" d="M14.707 7.29279C14.5194 7.10532 14.2651 7 14 7C13.7348 7 13.4805 7.10532 13.293 7.29279L9.29297 11.2928C9.1055 11.4803 9.00018 11.7346 9.00018 11.9998C9.00018 12.265 9.1055 12.5193 9.29297 12.7068L13.293 16.7068C13.4816 16.8889 13.7342 16.9897 13.9964 16.9875C14.2586 16.9852 14.5094 16.88 14.6948 16.6946C14.8802 16.5092 14.9854 16.2584 14.9876 15.9962C14.9899 15.734 14.8891 15.4814 14.707 15.2928L11.414 11.9998L14.707 8.70679C14.8944 8.51926 14.9998 8.26495 14.9998 7.99979C14.9998 7.73462 14.8944 7.48031 14.707 7.29279Z" fill="#D9E4E8"/>
</svg>