<svg xmlns="http://www.w3.org/2000/svg" width="16" height="20" viewBox="0 0 16 20" fill="none">
    <path d="M13.2075 11.175C12.5525 12.5025 11.665 13.825 10.7575 15.0125C9.89569 16.1313 8.97523 17.2036 8 18.225C7.02477 17.2036 6.10431 16.1313 5.2425 15.0125C4.335 13.825 3.4475 12.5025 2.7925 11.175C2.13 9.83375 1.75 8.5775 1.75 7.5C1.75 5.8424 2.40848 4.25269 3.58058 3.08058C4.75269 1.90848 6.3424 1.25 8 1.25C9.6576 1.25 11.2473 1.90848 12.4194 3.08058C13.5915 4.25269 14.25 5.8424 14.25 7.5C14.25 8.5775 13.8688 9.83375 13.2075 11.175ZM8 20C8 20 15.5 12.8925 15.5 7.5C15.5 5.51088 14.7098 3.60322 13.3033 2.1967C11.8968 0.790176 9.98912 0 8 0C6.01088 0 4.10322 0.790176 2.6967 2.1967C1.29018 3.60322 0.5 5.51088 0.5 7.5C0.5 12.8925 8 20 8 20Z" fill="#D6D7D9"/>
    <path d="M8 10C7.33696 10 6.70107 9.73661 6.23223 9.26777C5.76339 8.79893 5.5 8.16304 5.5 7.5C5.5 6.83696 5.76339 6.20107 6.23223 5.73223C6.70107 5.26339 7.33696 5 8 5C8.66304 5 9.29893 5.26339 9.76777 5.73223C10.2366 6.20107 10.5 6.83696 10.5 7.5C10.5 8.16304 10.2366 8.79893 9.76777 9.26777C9.29893 9.73661 8.66304 10 8 10ZM8 11.25C8.99456 11.25 9.94839 10.8549 10.6517 10.1517C11.3549 9.44839 11.75 8.49456 11.75 7.5C11.75 6.50544 11.3549 5.55161 10.6517 4.84835C9.94839 4.14509 8.99456 3.75 8 3.75C7.00544 3.75 6.05161 4.14509 5.34835 4.84835C4.64509 5.55161 4.25 6.50544 4.25 7.5C4.25 8.49456 4.64509 9.44839 5.34835 10.1517C6.05161 10.8549 7.00544 11.25 8 11.25Z" fill="#D6D7D9"/>
</svg>