<svg xmlns="http://www.w3.org/2000/svg" width="28" height="35" viewBox="0 0 28 35" fill="none">
    <path d="M13.7136 9.52453C16.6606 9.52453 19.487 10.6952 21.5709 12.7791C23.6548 14.863 24.8255 17.6894 24.8255 20.6365C24.8255 23.5835 23.6548 26.4099 21.5709 28.4938C19.487 30.5777 16.6606 31.7484 13.7136 31.7484C10.7665 31.7484 7.94012 30.5777 5.85622 28.4938C3.77233 26.4099 2.60161 23.5835 2.60161 20.6365C2.60161 17.6894 3.77233 14.863 5.85622 12.7791C7.94012 10.6952 10.7665 9.52453 13.7136 9.52453ZM13.7136 17.4616C12.8715 17.4616 12.064 17.7961 11.4686 18.3915C10.8732 18.9869 10.5387 19.7945 10.5387 20.6365C10.5387 21.4785 10.8732 22.286 11.4686 22.8814C12.064 23.4768 12.8715 23.8113 13.7136 23.8113C14.5556 23.8113 15.3631 23.4768 15.9585 22.8814C16.5539 22.286 16.8884 21.4785 16.8884 20.6365C16.8884 19.7945 16.5539 18.9869 15.9585 18.3915C15.3631 17.7961 14.5556 17.4616 13.7136 17.4616ZM9.61801 1.41074e-07C10.1334 -4.86957e-05 10.6411 0.125376 11.0971 0.36544C11.5532 0.605505 11.944 0.95299 12.2357 1.37788L12.3738 1.60012L15.1279 6.41953C13.2091 6.22584 11.2708 6.42397 9.43085 7.00192C7.59086 7.57987 5.88745 8.52558 4.42397 9.78169L4.05569 10.1087L0.314134 3.56217C0.115745 3.21527 0.00785756 2.82401 0.000413251 2.42445C-0.00703106 2.02489 0.0862072 1.62989 0.271537 1.27583C0.456866 0.921776 0.728325 0.620059 1.0609 0.398484C1.39348 0.176908 1.77647 0.0426012 2.17459 0.00793743L2.37937 1.41074e-07H9.61801ZM25.0446 1.41074e-07C25.4617 -0.000143421 25.8715 0.109286 26.233 0.317333C26.5946 0.52538 26.8951 0.824745 27.1045 1.18546C27.314 1.54617 27.425 1.95558 27.4265 2.37269C27.428 2.7898 27.3199 3.19998 27.113 3.56217L23.3714 10.1087C22.0388 8.88444 20.4858 7.9245 18.7949 7.27991L15.5486 1.60012C15.4749 1.47064 15.3921 1.34652 15.301 1.22866C15.5977 0.846211 15.978 0.536675 16.4127 0.323722C16.8474 0.11077 17.325 4.02749e-05 17.8091 1.41074e-07H25.0446Z" fill="#8CAFBA"/>
</svg>