<svg xmlns="http://www.w3.org/2000/svg" width="24" height="24" viewBox="0 0 24 24" fill="none">
    <path d="M12 1C5.92487 1 1 5.92487 1 12C1 18.0751 5.92487 23 12 23C18.0751 23 23 18.0751 23 12C23 5.92487 18.0751 1 12 1ZM8.04688 5.36938C8.27351 5.35602 8.47837 5.49148 8.63367 5.73193L10.1376 8.58397C10.2959 8.92192 10.2059 9.28379 9.96973 9.52526L9.28089 10.2141C9.23838 10.2724 9.2104 10.338 9.20972 10.4101C9.47389 11.4327 10.2752 12.3759 10.9822 13.0245C11.6892 13.6732 12.449 14.5513 13.4354 14.7594C13.5573 14.7934 13.7067 14.8056 13.794 14.7245L14.5942 13.9094C14.8705 13.7 15.2701 13.5986 15.5651 13.7698H15.5785L18.2922 15.3717C18.6905 15.6214 18.7318 16.104 18.4466 16.3976L16.5775 18.252C16.3015 18.535 15.9348 18.6302 15.5785 18.6306C14.0028 18.5834 12.514 17.81 11.291 17.0153C9.28373 15.555 7.44246 13.7438 6.28651 11.5555C5.84317 10.638 5.32238 9.46719 5.37208 8.44302C5.37651 8.05773 5.48076 7.68026 5.75209 7.43192L7.62123 5.56278C7.76683 5.43889 7.91088 5.37741 8.04688 5.36938Z" fill="#85868E"/>
</svg>