<svg xmlns="http://www.w3.org/2000/svg" width="20" height="20" viewBox="0 0 20 20" fill="none">
    <path d="M15.3333 17.2917H15.1416C12.9821 17.0576 10.9073 16.3213 9.08331 15.1417C7.3888 14.0618 5.94988 12.6257 4.86665 10.9333C3.68455 9.10445 2.94814 7.02367 2.71665 4.85834C2.69011 4.60009 2.71631 4.33914 2.79366 4.09132C2.87102 3.8435 2.99791 3.61397 3.16665 3.41667C3.33076 3.21673 3.53333 3.05176 3.76235 2.93152C3.99138 2.81128 4.24221 2.73822 4.49998 2.71667H6.66665C7.13591 2.71715 7.58953 2.8854 7.9456 3.19104C8.30168 3.49668 8.53673 3.91957 8.60831 4.38334C8.68751 4.97906 8.83573 5.56354 9.04998 6.12501C9.18035 6.47783 9.20725 6.86053 9.12753 7.22812C9.04782 7.59571 8.86479 7.93289 8.59998 8.20001L8.09165 8.70834C8.89199 9.97184 9.96557 11.0397 11.2333 11.8333L11.7416 11.3333C12.0088 11.0685 12.3459 10.8855 12.7135 10.8058C13.0811 10.7261 13.4638 10.753 13.8166 10.8833C14.3788 11.0955 14.963 11.2437 15.5583 11.325C16.03 11.3959 16.4596 11.6365 16.7665 12.0017C17.0733 12.3669 17.2364 12.8315 17.225 13.3083V15.3083C17.225 15.8285 17.0189 16.3275 16.6519 16.696C16.2849 17.0646 15.7868 17.2728 15.2666 17.275L15.3333 17.2917ZM6.66665 3.95834H4.67498C4.57719 3.96481 4.48172 3.99103 4.39435 4.03544C4.30698 4.07984 4.22952 4.14149 4.16665 4.21667C4.10545 4.2871 4.05914 4.36918 4.0305 4.45797C4.00186 4.54676 3.99148 4.64043 3.99998 4.73334C4.20296 6.69712 4.86216 8.58626 5.92498 10.25C6.90551 11.7889 8.21108 13.0945 9.74998 14.075C11.4144 15.1499 13.3058 15.8231 15.275 16.0417C15.3773 16.0469 15.4797 16.0312 15.5757 15.9953C15.6718 15.9595 15.7594 15.9044 15.8333 15.8333C15.966 15.6973 16.0407 15.515 16.0416 15.325V13.3333C16.0454 13.158 15.9847 12.9873 15.871 12.8537C15.7574 12.7201 15.5987 12.6328 15.425 12.6083C14.7365 12.5159 14.0602 12.3482 13.4083 12.1083C13.2799 12.0603 13.1405 12.0497 13.0062 12.0777C12.872 12.1058 12.7485 12.1713 12.65 12.2667L11.8166 13.1C11.719 13.1952 11.5933 13.2563 11.4582 13.2743C11.3231 13.2923 11.1858 13.2663 11.0666 13.2C9.28846 12.1952 7.81661 10.7262 6.80831 8.95001C6.73929 8.83165 6.71166 8.69368 6.72977 8.55787C6.74787 8.42206 6.81069 8.29615 6.90831 8.20001L7.74164 7.36667C7.83721 7.27003 7.90295 7.14793 7.93103 7.01494C7.9591 6.88196 7.94832 6.7437 7.89998 6.61667C7.65943 5.96495 7.49175 5.28862 7.39998 4.60001C7.3793 4.42106 7.29275 4.25622 7.15719 4.1376C7.02162 4.01898 6.84675 3.95508 6.66665 3.95834Z" fill="#D6D7D9"/>
</svg>