<svg width="16" height="16" viewBox="0 0 16 16" fill="none" xmlns="http://www.w3.org/2000/svg">
    <path fill-rule="evenodd" clip-rule="evenodd" d="M8.99995 1.3335C9.90356 1.33357 10.794 1.54974 11.5971 1.96396C12.4002 2.37818 13.0926 2.97844 13.6165 3.71467C14.1404 4.45089 14.4806 5.30173 14.6088 6.19619C14.737 7.09066 14.6495 8.00281 14.3534 8.85655C14.0574 9.71029 13.5615 10.4809 12.9071 11.104C12.2527 11.7271 11.4588 12.1847 10.5916 12.4386C9.7244 12.6924 8.80906 12.7353 7.92194 12.5634C7.03482 12.3916 6.20165 12.0101 5.49195 11.4508L3.05729 13.8855C2.93155 14.0069 2.76315 14.0741 2.58835 14.0726C2.41355 14.0711 2.24635 14.001 2.12274 13.8774C1.99914 13.7538 1.92902 13.5866 1.9275 13.4118C1.92599 13.237 1.99318 13.0686 2.11462 12.9428L4.54929 10.5082C3.89062 9.67257 3.48051 8.66843 3.36589 7.61065C3.25126 6.55286 3.43675 5.48418 3.90114 4.52689C4.36552 3.56961 5.09003 2.7624 5.99175 2.19765C6.89347 1.6329 7.93598 1.33342 8.99995 1.3335ZM13.3333 7.00016C13.3333 5.85089 12.8767 4.74869 12.0641 3.93603C11.2514 3.12338 10.1492 2.66683 8.99995 2.66683C7.85068 2.66683 6.74848 3.12338 5.93582 3.93603C5.12317 4.74869 4.66662 5.85089 4.66662 7.00016C4.66662 8.14943 5.12317 9.25163 5.93582 10.0643C6.74848 10.877 7.85068 11.3335 8.99995 11.3335C10.1492 11.3335 11.2514 10.877 12.0641 10.0643C12.8767 9.25163 13.3333 8.14943 13.3333 7.00016Z" fill="#BCBACC"/>
</svg>
