<svg xmlns="http://www.w3.org/2000/svg" width="48" height="48" viewBox="0 0 48 48" fill="none">
    <path fill-rule="evenodd" clip-rule="evenodd" d="M25.3593 29.9917C26.8569 29.1291 28.1651 27.9755 29.2064 26.5994C28.8708 26.0795 28.632 25.5036 28.5015 24.8993L28.4525 24.673C28.3118 24.0268 27.9806 23.4372 27.5012 22.9799C27.0218 22.5226 26.4162 22.2183 25.7621 22.1062C20.4122 21.1803 20.4122 13.5314 25.7621 12.603C26.3939 12.4946 26.9809 12.207 27.4527 11.7745C27.9244 11.342 28.2608 10.7831 28.4215 10.1648C27.1635 8.79928 25.624 7.72076 23.9085 7.00313C22.1931 6.2855 20.3422 5.94571 18.4826 6.00704C16.623 6.06838 14.7987 6.52938 13.1347 7.35847C11.4706 8.18756 10.0061 9.36515 8.84157 10.8106C7.67699 12.256 6.83983 13.9351 6.38743 15.7328C5.93503 17.5306 5.87809 19.4045 6.2205 21.2262C6.56291 23.0479 7.29658 24.7743 8.37126 26.2873C9.44594 27.8002 10.8362 29.0639 12.4469 29.9917V32.9983C12.4469 33.6804 12.7189 34.3346 13.2031 34.8169C13.6873 35.2992 14.3441 35.5702 15.0288 35.5702H22.7747C23.4595 35.5702 24.1162 35.2992 24.6004 34.8169C25.0847 34.3346 25.3567 33.6804 25.3567 32.9983L25.3593 29.9917ZM12.4495 40.0711C12.4495 39.5595 12.6535 39.0688 13.0166 38.7071C13.3798 38.3454 13.8724 38.1421 14.3859 38.1421H23.4228C23.9364 38.1421 24.4289 38.3454 24.7921 38.7071C25.1553 39.0688 25.3593 39.5595 25.3593 40.0711C25.3593 40.5826 25.1553 41.0733 24.7921 41.435C24.4289 41.7968 23.9364 42 23.4228 42H14.3859C13.8724 42 13.3798 41.7968 13.0166 41.435C12.6535 41.0733 12.4495 40.5826 12.4495 40.0711ZM31.2461 10.4091C31.7186 8.259 34.7912 8.24614 35.2817 10.3911L35.305 10.494L35.3515 10.6946C35.6301 11.8694 36.2485 12.9371 37.1301 13.7654C38.0117 14.5937 39.1177 15.1463 40.3114 15.3549C42.5629 15.7459 42.5629 18.9659 40.3114 19.3568C39.1108 19.5663 37.999 20.1239 37.1149 20.9597C36.2308 21.7955 35.6138 22.8724 35.3411 24.0557L35.2817 24.3181C34.7912 26.4656 31.7161 26.4528 31.241 24.3001L31.1919 24.0763C30.9316 22.8884 30.3221 21.8047 29.441 20.9632C28.56 20.1218 27.4473 19.5608 26.2449 19.3517C23.996 18.9633 23.996 15.7484 26.2449 15.3575C27.4431 15.1499 28.5525 14.5929 29.4327 13.7569C30.3129 12.9209 30.9242 11.8435 31.1893 10.6612L31.2281 10.494L31.2461 10.4091Z" fill="#8CAFBA"/>
</svg>