<svg xmlns="http://www.w3.org/2000/svg" width="20" height="20" viewBox="0 0 20 20" fill="none">
    <path d="M10.5 18C11.4849 18 12.4602 17.806 13.3701 17.4291C14.2801 17.0522 15.1069 16.4997 15.8033 15.8033C16.4997 15.1069 17.0522 14.2801 17.4291 13.3701C17.806 12.4602 18 11.4849 18 10.5C18 9.51509 17.806 8.53982 17.4291 7.62987C17.0522 6.71993 16.4997 5.89314 15.8033 5.1967C15.1069 4.50026 14.2801 3.94781 13.3701 3.5709C12.4602 3.19399 11.4849 3 10.5 3M10.5 18C9.51509 18 8.53982 17.806 7.62987 17.4291C6.71993 17.0522 5.89314 16.4997 5.1967 15.8033C4.50026 15.1069 3.94781 14.2801 3.5709 13.3701C3.19399 12.4602 3 11.4849 3 10.5C3 9.51509 3.19399 8.53982 3.5709 7.62987C3.94781 6.71993 4.50026 5.89314 5.1967 5.1967C5.89314 4.50026 6.71993 3.94781 7.62987 3.5709C8.53982 3.19399 9.51509 3 10.5 3M10.5 18C12.8008 18 13.7842 13.6975 13.7842 10.5C13.7842 7.3025 12.8008 3 10.5 3M10.5 18C8.19917 18 7.21583 13.6975 7.21583 10.5C7.21583 7.3025 8.19917 3 10.5 3M3.41667 8H17.5833M3.41667 13H17.5833" stroke="#ADAFB3" stroke-linecap="round" stroke-linejoin="round"/>
</svg>